<svg xmlns="http://www.w3.org/2000/svg" width="186" height="152" viewBox="0 0 186 152" fill="none">
<circel xmlns="" width="186" height="152" fill="#E5E5E5"/>
<path fill-rule="evenodd" clip-rule="evenodd" d="M116.71 18.6618C119.996 19.0895 123.007 16.7724 123.435 13.4864L123.668 11.6895C124.096 8.40349 121.779 5.39293 118.493 4.96521L117.595 4.84826C100.979 2.68543 88.0821 3.81208 77.4367 8.32581C66.7238 12.8682 59.1164 20.4925 52.4889 29.7035C47.6537 36.4236 43.0517 44.4321 38.1217 53.0116L38.1208 53.0131C36.4579 55.907 34.7575 58.866 32.9984 61.8624C29.5731 67.6965 25.8366 73.8378 21.5709 80.2368C21.1875 80.8121 20.2928 80.5097 20.33 79.8194C21.1473 64.6478 21.2768 45.2772 18.1437 30.1764L17.9596 29.2893C17.2864 26.0447 14.1104 23.9601 10.8658 24.6333L9.0915 25.0014C5.84689 25.6746 3.76235 28.8506 4.43554 32.0952L4.6196 32.9824C7.36872 46.2324 7.3447 64.0988 6.53786 79.0764C6.13915 86.4779 5.55947 93.0154 5.0796 97.6997C4.83986 100.04 4.62552 101.913 4.47198 103.194C4.39523 103.835 4.33371 104.327 4.29186 104.656C4.27094 104.82 4.25494 104.944 4.24441 105.024L4.2328 105.112L3.94209 107.279C3.23418 112.554 9.23575 116.071 13.4919 112.874L15.19 111.599L15.193 111.597C15.2097 111.585 15.2484 111.557 15.3093 111.515C15.4394 111.425 15.6707 111.269 16.0045 111.059C16.672 110.637 17.7493 109.997 19.2461 109.227C22.2381 107.688 26.9131 105.629 33.3516 103.773C46.2035 100.067 66.2263 97.1256 94.1066 100.868L95.0046 100.989C98.2888 101.43 101.309 99.1247 101.75 95.8405L101.991 94.0445C102.431 90.7602 100.126 87.7404 96.8422 87.2995L95.9443 87.179C76.5183 84.5712 60.4172 84.9764 47.4845 86.753C41.9823 87.5089 37.5193 81.102 40.4165 76.3637C41.9849 73.7987 43.4776 71.2941 44.9093 68.8554C46.8688 65.518 48.6891 62.351 50.4173 59.3444V59.3443C55.2208 50.9874 59.3123 43.8691 63.7005 37.7704C69.5064 29.7012 75.2981 24.235 82.8285 21.042C90.4265 17.8205 100.617 16.567 115.812 18.5448L116.71 18.6618ZM69.2909 133.34C66.0049 132.912 62.9943 135.229 62.5666 138.515L62.3327 140.312C61.905 143.598 64.222 146.609 67.508 147.037L68.4065 147.154C85.0224 149.316 97.9191 148.19 108.564 143.676C119.277 139.134 126.885 131.509 133.512 122.298C138.347 115.578 142.949 107.57 147.879 98.9905L147.88 98.9902C149.543 96.0957 151.243 93.1363 153.003 90.1394C156.428 84.3053 160.165 78.164 164.43 71.765C164.814 71.1897 165.708 71.4921 165.671 72.1824C164.854 87.354 164.724 106.725 167.857 121.825L168.042 122.713C168.715 125.957 171.891 128.042 175.135 127.368L176.91 127C180.154 126.327 182.239 123.151 181.566 119.907L181.382 119.019C178.632 105.769 178.656 87.903 179.463 72.9254C179.862 65.5239 180.442 58.9864 180.922 54.3021C181.161 51.9618 181.376 50.0889 181.529 48.8075C181.606 48.1669 181.667 47.6745 181.709 47.3459C181.73 47.1815 181.746 47.0582 181.757 46.9778L181.768 46.8895L182.059 44.7231C182.767 39.4477 176.765 35.9311 172.509 39.1274L170.811 40.4027L170.808 40.4049C170.792 40.4169 170.753 40.4445 170.692 40.4866C170.562 40.5764 170.33 40.7323 169.997 40.943C169.329 41.3644 168.252 42.005 166.755 42.7748C163.763 44.3136 159.088 46.3724 152.65 48.2289C139.798 51.9346 119.775 54.8762 91.8946 51.1335L90.9966 51.0129C87.7124 50.5721 84.6926 52.8771 84.2517 56.1613L84.0106 57.9573C83.5697 61.2416 85.8747 64.2614 89.1589 64.7023L90.0569 64.8228C109.483 67.4306 125.584 67.0254 138.517 65.2488C144.019 64.4929 148.482 70.8998 145.585 75.6381C144.016 78.2031 142.524 80.7077 141.092 83.1464C139.133 86.4822 137.314 89.6477 135.586 92.653L135.584 92.6575C130.78 101.014 126.689 108.133 122.301 114.231C116.495 122.301 110.703 127.767 103.173 130.96C95.5747 134.181 85.3838 135.435 70.1893 133.457L69.2909 133.34Z" fill="#00BEA8"/>
<path d="M4.24441 105.024L7.21877 105.415L7.21906 105.413L4.24441 105.024ZM4.2328 105.112L7.20616 105.511L7.20716 105.504L4.2328 105.112ZM15.19 111.599L13.4395 109.163L13.4138 109.181L13.3884 109.2L15.19 111.599ZM15.193 111.597L16.9435 114.033L16.9447 114.032L15.193 111.597ZM50.4173 59.3445L53.0182 60.8395L53.0291 60.8205L53.0398 60.8014L50.4173 59.3445ZM50.4173 59.3445L47.8164 57.8494L47.8055 57.8684L47.7949 57.8875L50.4173 59.3445ZM147.879 98.9906L150.481 100.485L150.524 100.41L150.563 100.332L147.879 98.9906ZM147.88 98.9903L145.278 97.4956L145.235 97.5709L145.196 97.6487L147.88 98.9903ZM181.757 46.9779L178.782 46.5864V46.5891L181.757 46.9779ZM181.768 46.8896L178.795 46.4906L178.794 46.4982L181.768 46.8896ZM170.811 40.4028L172.562 42.8387L172.588 42.8205L172.613 42.8017L170.811 40.4028ZM135.586 92.6531L132.985 91.1581L132.982 91.1647L135.586 92.6531ZM135.584 92.6576L138.185 94.1526L138.189 94.146L135.584 92.6576ZM120.46 13.0993C120.246 14.7423 118.741 15.9008 117.098 15.687L116.323 21.6368C121.252 22.2784 125.768 18.8027 126.409 13.8738L120.46 13.0993ZM120.694 11.3023L120.46 13.0993L126.409 13.8738L126.643 12.0768L120.694 11.3023ZM118.106 7.94017C119.749 8.15403 120.907 9.65931 120.694 11.3023L126.643 12.0768C127.285 7.14779 123.809 2.63195 118.88 1.99036L118.106 7.94017ZM117.207 7.82322L118.106 7.94017L118.88 1.99036L117.982 1.87341L117.207 7.82322ZM78.6078 11.0879C88.5912 6.85483 100.9 5.70055 117.207 7.82322L117.982 1.87341C101.057 -0.329578 87.5731 0.769454 76.2656 5.56389L78.6078 11.0879ZM54.9241 31.4557C61.3732 22.4925 68.5863 15.3371 78.6078 11.0879L76.2656 5.56389C64.8613 10.3994 56.8595 18.4927 50.0538 27.9514L54.9241 31.4557ZM40.7226 54.5067C45.673 45.8918 50.1961 38.0268 54.9241 31.4557L50.0538 27.9514C45.1113 34.8206 40.4303 42.9728 35.5205 51.517L40.7226 54.5067ZM40.7218 54.5082L40.7226 54.5067L35.5205 51.517L35.5199 51.5181L40.7218 54.5082ZM35.5854 63.3814C37.3528 60.371 39.0598 57.4004 40.7218 54.5082L35.5199 51.5181C33.8559 54.4138 32.1622 57.3612 30.4113 60.3436L35.5854 63.3814ZM24.0671 81.901C28.3755 75.4379 32.1435 69.2439 35.5854 63.3814L30.4113 60.3436C27.0028 66.1492 23.2978 72.2379 19.0747 78.5729L24.0671 81.901ZM17.3343 79.6581C17.1364 83.3328 21.9551 85.0693 24.0671 81.901L19.0747 78.5729C20.4198 76.5551 23.4492 77.6868 23.3256 79.9808L17.3343 79.6581ZM15.2062 30.786C18.256 45.485 18.1493 64.5291 17.3343 79.6581L23.3256 79.9808C24.1452 64.7666 24.2976 45.0696 21.0811 29.5671L15.2062 30.786ZM15.0222 29.8988L15.2062 30.786L21.0811 29.5671L20.8971 28.6799L15.0222 29.8988ZM11.4753 27.5708C13.0976 27.2342 14.6856 28.2765 15.0222 29.8988L20.8971 28.6799C19.8873 23.813 15.1233 20.6862 10.2564 21.696L11.4753 27.5708ZM9.70096 27.939L11.4753 27.5708L10.2564 21.696L8.48204 22.0641L9.70096 27.939ZM7.37298 31.4859C7.03638 29.8636 8.07865 28.2756 9.70096 27.939L8.48204 22.0641C3.61513 23.0739 0.488309 27.8379 1.49809 32.7048L7.37298 31.4859ZM7.55704 32.373L7.37298 31.4859L1.49809 32.7048L1.68216 33.5919L7.55704 32.373ZM9.53352 79.2379C10.3426 64.2187 10.3896 46.0253 7.55704 32.373L1.68216 33.5919C4.34782 46.4398 4.3468 63.9791 3.54221 78.9151L9.53352 79.2379ZM8.06398 98.0055C8.54753 93.2853 9.13163 86.6984 9.53352 79.2379L3.54221 78.9151C3.14667 86.2576 2.57141 92.7457 2.09522 97.3941L8.06398 98.0055ZM7.45068 103.551C7.60604 102.255 7.82232 100.365 8.06398 98.0055L2.09522 97.3941C1.8574 99.7156 1.645 101.571 1.49329 102.837L7.45068 103.551ZM7.26783 105.035C7.31057 104.699 7.373 104.2 7.45068 103.551L1.49329 102.837C1.41745 103.47 1.35685 103.955 1.31589 104.277L7.26783 105.035ZM7.21906 105.413C7.23002 105.329 7.24646 105.203 7.26783 105.035L1.31589 104.277C1.29542 104.438 1.27985 104.558 1.26976 104.635L7.21906 105.413ZM7.20716 105.504L7.21877 105.415L1.27005 104.633L1.25844 104.721L7.20716 105.504ZM6.91544 107.678L7.20616 105.511L1.25945 104.713L0.968741 106.88L6.91544 107.678ZM11.6903 110.476C9.56227 112.074 6.56148 110.315 6.91544 107.678L0.968741 106.88C-0.09313 114.793 8.90923 120.068 15.2934 115.273L11.6903 110.476ZM13.3884 109.2L11.6903 110.476L15.2934 115.273L16.9915 113.998L13.3884 109.2ZM13.4426 109.16L13.4395 109.163L16.9404 114.035L16.9435 114.033L13.4426 109.16ZM13.6043 109.047C13.5277 109.1 13.4733 109.138 13.4414 109.161L16.9447 114.032C16.9447 114.032 16.9692 114.015 17.0144 113.984L13.6043 109.047ZM14.4031 108.522C14.0335 108.755 13.7677 108.934 13.6043 109.047L17.0144 113.984C17.1112 113.917 17.3079 113.784 17.6059 113.596L14.4031 108.522ZM17.874 106.559C16.2959 107.371 15.1421 108.055 14.4031 108.522L17.6059 113.596C18.2018 113.219 19.2027 112.623 20.6182 111.895L17.874 106.559ZM32.5205 100.89C25.885 102.804 21.0293 104.936 17.874 106.559L20.6182 111.895C23.4469 110.44 27.9412 108.455 34.1828 106.655L32.5205 100.89ZM94.5057 97.8951C66.2191 94.0978 45.7772 97.068 32.5205 100.89L34.1828 106.655C46.6298 103.067 66.2334 100.153 93.7074 103.842L94.5057 97.8951ZM95.4037 98.0156L94.5057 97.8951L93.7074 103.842L94.6054 103.962L95.4037 98.0156ZM98.7762 95.4414C98.5557 97.0836 97.0458 98.2361 95.4037 98.0156L94.6054 103.962C99.5318 104.624 104.062 101.166 104.723 96.2397L98.7762 95.4414ZM99.0173 93.6455L98.7762 95.4414L104.723 96.2397L104.964 94.4437L99.0173 93.6455ZM96.4431 90.273C98.0852 90.4934 99.2377 92.0033 99.0173 93.6455L104.964 94.4437C105.625 89.5174 102.168 84.9876 97.2414 84.3263L96.4431 90.273ZM95.5451 90.1524L96.4431 90.273L97.2414 84.3263L96.3434 84.2058L95.5451 90.1524ZM47.8927 89.7252C60.5502 87.9864 76.3797 87.5796 95.5451 90.1524L96.3434 84.2058C76.657 81.563 60.2841 81.9667 47.0762 83.781L47.8927 89.7252ZM37.857 74.7988C35.6701 78.3754 36.3584 82.4486 38.3274 85.3167C40.2905 88.1761 43.8209 90.2846 47.8927 89.7252L47.0762 83.781C45.6459 83.9775 44.1937 83.2605 43.2739 81.9208C42.3602 80.5899 42.2656 79.0905 42.9759 77.9288L37.857 74.7988ZM42.3223 67.3366C40.8973 69.7637 39.414 72.2525 37.857 74.7988L42.9759 77.9288C44.5557 75.3451 46.0578 72.8247 47.4964 70.3744L42.3223 67.3366ZM47.8164 57.8494C46.0875 60.8573 44.2737 64.0128 42.3223 67.3366L47.4964 70.3744C49.4639 67.0233 51.2908 63.8448 53.0182 60.8395L47.8164 57.8494ZM61.2653 36.0183C56.7698 42.2663 52.5989 49.529 47.8164 57.8494L53.0182 60.8395C57.8426 52.4462 61.8548 45.4722 66.1356 39.5226L61.2653 36.0183ZM81.6574 18.2802C73.4359 21.7661 67.2499 27.7009 61.2653 36.0183L66.1356 39.5226C71.763 31.7016 77.1602 26.7041 83.9996 23.8041L81.6574 18.2802ZM116.199 15.57C100.696 13.552 89.9171 14.778 81.6574 18.2802L83.9996 23.8041C90.9358 20.8631 100.539 19.5822 115.425 21.5198L116.199 15.57ZM117.098 15.687L116.199 15.57L115.425 21.5198L116.323 21.6368L117.098 15.687ZM65.5415 138.903C65.7554 137.26 67.2606 136.101 68.9036 136.315L69.6781 130.365C64.7491 129.724 60.2333 133.199 59.5917 138.128L65.5415 138.903ZM65.3076 140.7L65.5415 138.903L59.5917 138.128L59.3578 139.925L65.3076 140.7ZM67.8953 144.062C66.2523 143.848 65.0937 142.343 65.3076 140.7L59.3578 139.925C58.7162 144.854 62.1918 149.37 67.1208 150.011L67.8953 144.062ZM68.7937 144.179L67.8953 144.062L67.1208 150.011L68.0193 150.128L68.7937 144.179ZM107.393 140.914C97.41 145.147 85.1011 146.301 68.7937 144.179L68.0193 150.128C84.9437 152.331 98.4281 151.232 109.736 146.438L107.393 140.914ZM131.077 120.546C124.628 129.509 117.415 136.665 107.393 140.914L109.736 146.438C121.14 141.602 129.142 133.509 135.947 124.05L131.077 120.546ZM145.278 97.4956C140.328 106.111 135.805 113.975 131.077 120.546L135.947 124.05C140.89 117.181 145.571 109.029 150.481 100.485L145.278 97.4956ZM150.416 88.6206C148.648 91.6315 146.941 94.6029 145.278 97.4956L150.481 100.485C152.145 97.5888 153.839 94.6413 155.59 91.6584L150.416 88.6206ZM161.934 70.1011C157.626 76.5641 153.858 82.7581 150.416 88.6206L155.59 91.6584C158.998 85.8528 162.703 79.7641 166.926 73.4291L161.934 70.1011ZM168.667 72.3439C168.865 68.6694 164.046 66.9326 161.934 70.1011L166.926 73.4291C165.581 75.4472 162.552 74.315 162.676 72.0212L168.667 72.3439ZM170.795 121.216C167.745 106.517 167.852 87.4729 168.667 72.3439L162.676 72.0212C161.856 87.2354 161.704 106.932 164.92 122.435L170.795 121.216ZM170.979 122.103L170.795 121.216L164.92 122.435L165.104 123.322L170.979 122.103ZM174.526 124.431C172.904 124.768 171.316 123.725 170.979 122.103L165.104 123.322C166.114 128.189 170.878 131.316 175.745 130.306L174.526 124.431ZM176.3 124.063L174.526 124.431L175.745 130.306L177.519 129.938L176.3 124.063ZM178.628 120.516C178.965 122.138 177.923 123.726 176.3 124.063L177.519 129.938C182.386 128.928 185.513 124.164 184.503 119.297L178.628 120.516ZM178.444 119.629L178.628 120.516L184.503 119.297L184.319 118.41L178.444 119.629ZM176.468 72.7641C175.659 87.7832 175.612 105.977 178.444 119.629L184.319 118.41C181.653 105.562 181.654 88.0229 182.459 73.0869L176.468 72.7641ZM177.937 53.9965C177.454 58.7167 176.87 65.3037 176.468 72.7641L182.459 73.0869C182.855 65.7444 183.43 59.2563 183.906 54.6079L177.937 53.9965ZM178.551 48.4506C178.395 49.7472 178.179 51.6374 177.937 53.9965L183.906 54.6079C184.144 52.2864 184.356 50.4306 184.508 49.1645L178.551 48.4506ZM178.733 46.967C178.691 47.3027 178.628 47.8024 178.551 48.4506L184.508 49.1645C184.584 48.5316 184.644 48.0465 184.685 47.725L178.733 46.967ZM178.782 46.5891C178.771 46.6724 178.755 46.799 178.733 46.967L184.685 47.725C184.706 47.5644 184.721 47.4441 184.731 47.3667L178.782 46.5891ZM178.794 46.4982L178.782 46.5864L184.731 47.3693L184.743 47.2811L178.794 46.4982ZM179.086 44.3242L178.795 46.4906L184.742 47.2886L185.032 45.1222L179.086 44.3242ZM174.311 41.5264C176.439 39.9282 179.44 41.6865 179.086 44.3242L185.032 45.1222C186.094 37.2091 177.092 31.9342 170.708 36.7287L174.311 41.5264ZM172.613 42.8017L174.311 41.5264L170.708 36.7287L169.01 38.004L172.613 42.8017ZM172.559 42.8413L172.562 42.8387L169.06 37.967L169.057 37.9692L172.559 42.8413ZM172.397 42.9551C172.474 42.9021 172.528 42.8636 172.559 42.8413L169.058 37.9688C169.055 37.9704 169.032 37.9873 168.987 38.0185L172.397 42.9551ZM171.598 43.48C171.968 43.2467 172.234 43.0679 172.397 42.9551L168.987 38.0185C168.89 38.0854 168.693 38.2182 168.395 38.4063L171.598 43.48ZM168.127 45.4427C169.705 44.6311 170.859 43.9465 171.598 43.48L168.395 38.4063C167.799 38.7825 166.798 39.3791 165.383 40.1071L168.127 45.4427ZM153.481 51.1115C160.116 49.1983 164.972 47.0656 168.127 45.4427L165.383 40.1071C162.554 41.5619 158.06 43.5467 151.818 45.3464L153.481 51.1115ZM91.4955 54.1069C119.782 57.9042 140.224 54.934 153.481 51.1115L151.818 45.3464C139.371 48.9354 119.768 51.8484 92.2938 48.1603L91.4955 54.1069ZM90.5975 53.9864L91.4955 54.1069L92.2938 48.1603L91.3958 48.0397L90.5975 53.9864ZM87.225 56.5606C87.4454 54.9184 88.9554 53.7659 90.5975 53.9864L91.3958 48.0397C86.4694 47.3784 81.9397 50.8359 81.2783 55.7623L87.225 56.5606ZM86.9839 58.3565L87.225 56.5606L81.2783 55.7623L81.0372 57.5583L86.9839 58.3565ZM89.5581 61.729C87.916 61.5086 86.7635 59.9987 86.9839 58.3565L81.0372 57.5583C80.3759 62.4846 83.8334 67.0144 88.7598 67.6757L89.5581 61.729ZM90.4561 61.8496L89.5581 61.729L88.7598 67.6757L89.6578 67.7962L90.4561 61.8496ZM138.108 62.2768C125.451 64.0156 109.622 64.4224 90.4561 61.8496L89.6578 67.7962C109.344 70.439 125.717 70.0354 138.925 68.221L138.108 62.2768ZM148.144 77.2032C150.331 73.6266 149.643 69.5534 147.674 66.6853C145.711 63.8259 142.18 61.7174 138.108 62.2768L138.925 68.221C140.355 68.0245 141.808 68.7415 142.727 70.0812C143.641 71.4121 143.736 72.9115 143.025 74.0732L148.144 77.2032ZM143.679 84.6654C145.104 82.2383 146.587 79.7495 148.144 77.2032L143.025 74.0732C141.445 76.6569 139.943 79.1773 138.505 81.6276L143.679 84.6654ZM138.187 94.1481C139.916 91.1415 141.728 87.9876 143.679 84.6654L138.505 81.6276C136.538 84.9771 134.712 88.1541 132.985 91.1581L138.187 94.1481ZM138.189 94.146L138.191 94.1415L132.982 91.1647L132.979 91.1692L138.189 94.146ZM124.736 115.984C129.231 109.736 133.402 102.473 138.185 94.1526L132.983 91.1626C128.159 99.5559 124.146 106.53 119.866 112.479L124.736 115.984ZM104.344 133.722C112.565 130.236 118.751 124.301 124.736 115.984L119.866 112.479C114.238 120.3 108.841 125.298 102.002 128.198L104.344 133.722ZM69.8021 136.432C85.3056 138.45 96.0841 137.224 104.344 133.722L102.002 128.198C95.0654 131.139 85.4621 132.42 70.5766 130.482L69.8021 136.432ZM68.9036 136.315L69.8021 136.432L70.5766 130.482L69.6781 130.365L68.9036 136.315Z" fill="#00BEA8"/>
</svg>