<svg xmlns="http://www.w3.org/2000/svg" width="844" height="163" viewBox="0 0 844 163" fill="none">
<circel xmlns="" width="844" height="163" fill="#E5E5E5"/>
<path d="M219.5 92.5399L203.857 98.8733V134.499H175V88.0775V22.2235L203.857 28.2692V72.6757L245.853 28.2692H277.749L245.853 72.6757L281.532 133.06L245.853 126.87L219.5 92.5399ZM346.177 112.404C346.177 108.805 344.58 106.022 341.385 104.055C338.247 102.04 332.727 100.313 324.824 98.8733C316.979 97.4339 310.73 95.7066 306.078 93.6913C301.483 91.6761 298.064 89.2771 295.823 86.4942C293.637 83.7113 292.544 80.4006 292.544 76.5621C292.544 70.1806 295.682 64.7828 301.959 60.3685C308.292 55.9542 316.362 53.7471 326.17 53.7471C336.481 53.7471 344.832 56.0262 351.22 60.5845C357.665 65.1426 360.888 70.9723 360.888 78.0735H345.252C345.252 74.427 343.431 71.2842 339.788 68.6452C336.201 66.0063 331.662 64.6868 326.17 64.6868C320.509 64.6868 316.082 65.7424 312.887 67.8535C309.693 69.9647 308.096 72.7237 308.096 76.1304C308.096 79.345 309.581 81.768 312.551 83.3994C315.522 85.0308 320.874 86.5902 328.607 88.0775C336.397 89.5649 342.702 91.3404 347.522 93.4035C352.341 95.4666 355.9 97.9618 358.198 100.888C360.552 103.767 361.728 107.294 361.728 111.468C361.728 118.426 358.478 124.015 351.977 128.238C345.476 132.412 337.042 134.499 326.674 134.499C319.388 134.499 312.944 133.396 307.339 131.189C301.735 128.981 297.336 125.911 294.141 121.976C291.003 117.994 289.434 113.699 289.434 109.093H304.986C305.266 113.556 307.339 117.106 311.206 119.745C315.129 122.336 320.285 123.632 326.674 123.632C332.558 123.632 337.266 122.624 340.797 120.609C344.383 118.546 346.177 115.811 346.177 112.404ZM389.637 133.06V65.4785L375.263 83.3994V55.1866H389.637H382.45C382.45 46.838 384.426 32.8274 389.637 28.2692C394.849 23.711 410.037 21 419.564 21C423.15 21 426.709 21.4079 430.24 22.2235V46.9818C433.21 46.9818 427.606 46.55 430.24 46.9818C425.196 46.9818 412.054 33.643 409.308 36.186C406.562 38.6811 405.189 42.2797 405.189 46.9818V55.1866H424.608L436.797 79.7289L409.308 67.8535V134.499L389.637 133.06ZM480.342 86.3502C466.499 82.9435 456.412 78.7692 450.08 73.8273C443.803 68.8371 440.664 62.6956 440.664 55.4025C440.664 47.1497 444.504 40.3364 452.18 34.9626C459.914 29.5407 469.946 26.8297 482.276 26.8297C490.682 26.8297 498.163 28.2212 504.721 31.0041C511.333 33.787 516.433 37.6255 520.021 42.5195C523.662 47.4136 525.483 52.7635 525.483 58.5692L508.756 68.6452C508.756 62.3117 507.41 50.7962 502.703 47.1976C497.996 43.551 493.454 42.5195 484.881 42.5195C476.922 42.5195 468.097 39.4967 463.613 42.5195C463.613 46.7659 461.176 48.4212 461.176 53.7471C461.176 58.0174 459.074 63.0795 463.278 66.0542C467.537 68.9811 474.737 71.668 484.881 74.1151C495.081 76.5621 503.039 79.273 508.756 82.2478C514.527 85.1747 518.786 88.6054 521.532 92.5399C524.335 96.4742 525.736 101.104 525.736 106.43C525.736 114.923 521.87 121.736 514.136 126.87C506.401 131.956 496.062 134.499 483.116 134.499C474.709 134.499 466.864 133.132 459.578 130.397C452.292 127.614 446.661 123.823 442.682 119.025C438.758 114.227 436.797 108.781 436.797 102.688L463.613 95.2747C463.613 101.608 458.121 109.837 463.613 113.484C469.105 117.13 475.746 119.025 484.881 119.025C493.399 119.025 498.667 117.682 503.207 114.707C507.747 111.732 509.512 111.708 509.512 106.574C509.512 101.44 507.41 97.4818 503.207 94.699C499.003 91.868 491.381 89.0852 480.342 86.3502ZM624.5 95.2747L631.151 55.4025L657.631 55.1866L631.151 133.06H618.542L596.433 74.0431L574.913 133.06H562.304L535.908 55.1866L562.304 53.7471L568 94.5L590.466 55.1866H602.991L624.5 95.2747ZM729.674 133.06C728.777 131.524 728.049 128.79 727.488 124.855C720.259 131.285 711.628 134.499 701.596 134.499C692.63 134.499 685.26 132.34 679.487 128.022C673.772 123.656 670.914 118.138 670.914 111.468C670.914 103.36 674.5 97.074 681.674 92.6118C688.903 88.1016 699.047 85.8465 712.105 85.8465H727.236V79.7289C727.236 75.0747 725.611 71.3802 722.361 68.6452C719.11 65.8623 710.201 67.8535 703.867 67.8535C707.622 65.4545 698.32 67.8535 703.867 67.8535C700.112 70.2526 694.031 76.3223 694.031 79.7289L672.763 76.778C672.763 72.8916 674.36 69.149 677.554 65.5504C680.804 61.904 685.177 59.025 690.669 56.9138C696.216 54.8028 702.297 53.7471 708.91 53.7471C719.391 53.7471 727.6 56.0023 733.541 60.5124C739.48 64.9747 742.564 71.1402 742.788 79.0092V114.851C742.788 122 743.853 127.686 745.983 131.908V133.06H729.674ZM703.867 122.912C708.743 122.912 713.365 121.832 717.736 119.673C722.108 117.514 725.275 114.707 727.236 111.252V95.2747H715.047C695.992 95.2747 686.465 100.049 686.465 109.597C686.465 113.771 688.09 117.034 691.341 119.385C694.591 121.736 698.766 122.912 703.867 122.912ZM844 94.9868C844 106.838 840.834 116.386 834.502 123.632C828.168 130.877 819.594 134.499 808.777 134.499C797.737 134.499 789.051 131.501 782.717 125.503V163H765.5V56.9138L781.373 55.1866L782.13 63.8231C788.462 57.1059 797.261 53.7471 808.526 53.7471C819.453 53.7471 828.084 57.2738 834.417 64.3269C840.806 71.3802 844 81.1923 844 93.7633V94.9868ZM828.449 93.4754C828.449 84.6949 826.178 84.8149 821.807 79.7289C817.435 74.643 811.692 72.6757 804.07 72.6757C794.655 72.6757 787.426 88.1256 782.717 95.2747L790 111.252C794.652 118.354 799.193 121.976 808.777 121.976C816.23 121.976 824.077 111.612 828.449 106.574C832.877 101.488 828.449 103.456 828.449 93.4754Z" fill="#00BEA8"/>
<path d="M75 150C116.421 150 150 116.421 150 75C150 33.5786 116.421 0 75 0C33.5786 0 0 33.5786 0 75C0 116.421 33.5786 150 75 150Z" fill="#00BEA8"/>
<path d="M82.2431 98.9027L62.4766 72.4052L87.3812 49.7082C87.3812 49.7082 90.9908 45.8083 99.1045 45.525L125.576 44.6003C125.576 44.6003 94.3848 65.4589 93.8469 69.8519C93.3647 74.1999 121.793 104.555 121.793 104.555L100.903 105.284C86.5169 105.787 82.2431 98.9027 82.2431 98.9027Z" fill="white"/>
<path d="M66.6044 60.2539L69.6983 46.5519L42.1909 47.5125L30.243 101.362L57.6928 100.404L61.3281 84.0666L52.9242 72.7391L66.6044 60.2539Z" fill="white"/>
</svg>