<svg xmlns="http://www.w3.org/2000/svg" width="669" height="143" viewBox="0 0 669 143" fill="none">
<path d="M44.5 71.552L28.8573 77.8853V113.511H0V67.0896V1.23563L28.8573 7.28124V51.6877L70.8527 7.28124H102.749L70.8527 51.6877L106.532 112.072L70.8527 105.882L44.5 71.552ZM171.177 91.416C171.177 87.8175 169.58 85.0346 166.385 83.0674C163.247 81.0522 157.727 79.3248 149.824 77.8853C141.979 76.446 135.73 74.7186 131.078 72.7034C126.483 70.6882 123.064 68.2892 120.823 65.5063C118.637 62.7234 117.544 59.4127 117.544 55.5742C117.544 49.1927 120.682 43.7949 126.959 39.3806C133.292 34.9663 141.362 32.7592 151.17 32.7592C161.481 32.7592 169.832 35.0383 176.22 39.5965C182.665 44.1547 185.888 49.9844 185.888 57.0856H170.252C170.252 53.4391 168.431 50.2963 164.788 47.6573C161.201 45.0184 156.662 43.6989 151.17 43.6989C145.509 43.6989 141.082 44.7544 137.887 46.8656C134.693 48.9768 133.096 51.7358 133.096 55.1424C133.096 58.357 134.581 60.7801 137.551 62.4115C140.522 64.0429 145.874 65.6022 153.607 67.0896C161.397 68.577 167.702 70.3524 172.522 72.4156C177.341 74.4787 180.9 76.9738 183.198 79.9006C185.552 82.7795 186.728 86.306 186.728 90.4805C186.728 97.4377 183.478 103.027 176.977 107.25C170.476 111.424 162.042 113.511 151.674 113.511C144.388 113.511 137.944 112.408 132.339 110.201C126.735 107.994 122.336 104.923 119.141 100.988C116.003 97.0058 114.434 92.7115 114.434 88.1053H129.986C130.266 92.5676 132.339 96.1182 136.206 98.7572C140.129 101.348 145.285 102.644 151.674 102.644C157.558 102.644 162.266 101.636 165.797 99.6208C169.383 97.5577 171.177 94.8227 171.177 91.416ZM214.637 112.072V44.4906L200.263 62.4115V34.1987H214.637H207.45C207.45 25.8501 209.426 11.8394 214.637 7.28124C219.849 2.72304 235.037 0.0121107 244.564 0.0121107C248.15 0.0121107 251.709 0.419947 255.24 1.23563V25.9939C258.21 25.9939 252.606 25.5621 255.24 25.9939C250.196 25.9939 237.054 12.6551 234.308 15.1981C231.562 17.6932 230.189 21.2918 230.189 25.9939V34.1987H249.608L261.797 58.741L234.308 46.8656V113.511L214.637 112.072ZM305.342 65.3623C291.499 61.9556 281.412 57.7813 275.08 52.8394C268.803 47.8492 265.664 41.7077 265.664 34.4146C265.664 26.1618 269.504 19.3485 277.18 13.9747C284.914 8.55274 294.946 5.84181 307.276 5.84181C315.682 5.84181 323.163 7.23326 329.721 10.0162C336.333 12.7991 341.433 16.6376 345.021 21.5316C348.662 26.4257 350.483 31.7756 350.483 37.5813L333.756 47.6573C333.756 41.3238 332.41 29.8083 327.703 26.2097C322.996 22.5631 318.454 21.5316 309.881 21.5316C301.922 21.5316 293.097 18.5088 288.613 21.5316C288.613 25.778 286.176 27.4333 286.176 32.7592C286.176 37.0295 284.074 42.0916 288.278 45.0663C292.537 47.9932 299.737 50.6801 309.881 53.1272C320.081 55.5742 328.039 58.2851 333.756 61.2599C339.527 64.1868 343.786 67.6175 346.532 71.552C349.335 75.4863 350.736 80.1165 350.736 85.4424C350.736 93.9351 346.87 100.748 339.136 105.882C331.401 110.968 321.063 113.511 308.116 113.511C299.709 113.511 291.864 112.144 284.578 109.409C277.292 106.626 271.661 102.836 267.682 98.0374C263.758 93.2393 261.797 87.7934 261.797 81.6999L288.613 74.2868C288.613 80.6203 283.121 88.8491 288.613 92.4957C294.105 96.1423 300.746 98.0374 309.881 98.0374C318.399 98.0374 323.667 96.6939 328.207 93.7191C332.747 90.7443 334.512 90.7203 334.512 85.5863C334.512 80.4524 332.41 76.4939 328.207 73.711C324.003 70.8801 316.381 68.0972 305.342 65.3623ZM449.5 74.2868L456.151 34.4146L482.631 34.1987L456.151 112.072H443.542L421.433 53.0551L399.913 112.072H387.304L360.908 34.1987L387.304 32.7592L393 73.5121L415.466 34.1987H427.991L449.5 74.2868ZM554.674 112.072C553.777 110.536 553.049 107.802 552.488 103.867C545.259 110.297 536.628 113.511 526.596 113.511C517.63 113.511 510.26 111.352 504.487 107.034C498.772 102.668 495.914 97.1498 495.914 90.4805C495.914 82.3717 499.5 76.0861 506.674 71.6239C513.903 67.1137 524.047 64.8586 537.105 64.8586H552.236V58.741C552.236 54.0868 550.611 50.3923 547.361 47.6573C544.11 44.8744 535.201 46.8656 528.867 46.8656C532.622 44.4666 523.32 46.8656 528.867 46.8656C525.112 49.2647 519.031 55.3344 519.031 58.741L497.763 55.7901C497.763 51.9037 499.36 48.1611 502.554 44.5625C505.804 40.916 510.177 38.0371 515.669 35.9259C521.216 33.8149 527.297 32.7592 533.91 32.7592C544.391 32.7592 552.6 35.0144 558.541 39.5245C564.48 43.9868 567.564 50.1523 567.788 58.0213V93.8631C567.788 101.012 568.853 106.698 570.983 110.92V112.072H554.674ZM528.867 101.924C533.743 101.924 538.365 100.844 542.736 98.6852C547.108 96.526 550.275 93.7191 552.236 90.2646V74.2868H540.047C520.992 74.2868 511.465 79.061 511.465 88.6091C511.465 92.7836 513.09 96.0462 516.341 98.3974C519.591 100.748 523.766 101.924 528.867 101.924ZM669 73.9989C669 85.8503 665.834 95.3986 659.502 102.644C653.168 109.889 644.594 113.511 633.777 113.511C622.737 113.511 614.051 110.513 607.717 104.515V142.012H590.5V35.9259L606.373 34.1987L607.13 42.8352C613.462 36.118 622.261 32.7592 633.526 32.7592C644.453 32.7592 653.084 36.2858 659.417 43.339C665.806 50.3923 669 60.2044 669 72.7754V73.9989ZM653.449 72.4875C653.449 63.707 651.178 63.827 646.807 58.741C642.435 53.6551 636.692 51.6877 629.07 51.6877C619.655 51.6877 612.426 67.1377 607.717 74.2868L615 90.2646C619.652 97.3657 624.193 100.988 633.777 100.988C641.23 100.988 649.077 90.6242 653.449 85.5863C657.877 80.5002 653.449 82.4676 653.449 72.4875Z" fill="#00BEA8"/>
</svg>